<?xml version="1.0"?>
<svg width="160" height="30" xmlns="http://www.w3.org/2000/svg">
 <style type="text/css">.st0{fill:#F37021;}</style>

 <g>
  <title>background</title>
  <rect fill="none" id="canvas_background" height="402" width="582" y="-1" x="-1"/>
 </g>
 <g>
  <title>Layer 1</title>
  <path id="svg_1" d="m110.000031,14.9c-0.400002,0 -0.800003,-0.2 -1.099998,-0.5c-0.300003,-0.299999 -0.5,-0.7 -0.5,-1.099999c0,-0.400001 0.199997,-0.8 0.5,-1.1c0.299995,-0.3 0.699997,-0.5 1.099998,-0.5c0.400002,0 0.800003,0.2 1.099998,0.5c0.300003,0.3 0.5,0.7 0.5,1.1c0,0.4 -0.199997,0.8 -0.5,1.099999c-0.299995,0.3 -0.699997,0.5 -1.099998,0.5"/>
  <path id="svg_2" d="m102.800034,12.5c0.299995,0 0.599998,-0.1 0.799995,-0.2c0.200005,-0.1 0.400002,-0.3 0.599998,-0.5c0.200005,-0.2 0.300003,-0.400001 0.400002,-0.7c0.099998,-0.3 0.099998,-0.5 0.099998,-0.8c0,-0.6 -0.199997,-1.1 -0.599998,-1.5c-0.400002,-0.400001 -0.799995,-0.6 -1.400002,-0.6c-0.299995,0 -0.599998,0.1 -0.799995,0.2c-0.200005,0.1 -0.400002,0.3 -0.599998,0.5c-0.200005,0.200001 -0.300003,0.400001 -0.400002,0.700001c-0.099998,0.299999 -0.099998,0.5 -0.099998,0.799999c0,0.3 0.099998,0.6 0.199997,0.8c0.099998,0.2 0.300003,0.5 0.400002,0.7c0.199997,0.200001 0.400002,0.3 0.599998,0.400001c0.300003,0.099999 0.5,0.2 0.800003,0.2m-0.200005,2.3c-0.599998,0 -1.199997,-0.1 -1.799995,-0.3c-0.5,-0.2 -1,-0.5 -1.400002,-0.9c-0.400002,-0.400001 -0.700005,-0.900001 -1,-1.400001c-0.200005,-0.5 -0.300003,-1.099999 -0.300003,-1.8c0,-0.599999 0.099998,-1.2 0.300003,-1.7c0.199997,-0.5 0.5,-1 0.900002,-1.4c0.399994,-0.4 0.899994,-0.7 1.5,-0.9c0.599998,-0.2 1.199997,-0.3 1.899994,-0.3c0.700005,0 1.300003,0.1 1.900002,0.3c0.599998,0.2 1.099998,0.5 1.5,0.9c0.400002,0.4 0.700005,0.9 1,1.4c0.200005,0.5 0.300003,1.1 0.300003,1.8c0,0.6 -0.099998,1.1 -0.300003,1.6c-0.199997,0.5 -0.5,1 -0.900002,1.4c-0.399994,0.4 -0.899994,0.7 -1.5,1c-0.599998,0.2 -1.299995,0.3 -2.099998,0.3"/>
  <polygon id="svg_3" points="93.4 8.3 92.3 8.3 92.3 6.3 93.4 6.3 93.4 3.4 96.1 3.4 96.1 6.3 97.6 6.3 97.6 8.3 96.1 8.3 96.1 14.5 93.4 14.5"/>
  <g id="svg_4">
   <path id="svg_5" d="m82.800034,6.3l2.699997,0l0,4.2c0,0.3 0,0.6 0.099998,0.8c0,0.2 0.099998,0.5 0.200005,0.599999c0.099998,0.200001 0.299995,0.3 0.5,0.400001c0.199997,0.099999 0.399994,0.2 0.699997,0.2c0.300003,0 0.5,-0.1 0.699997,-0.2c0.200005,-0.1 0.300003,-0.3 0.400002,-0.400001c0.099998,-0.2 0.200005,-0.4 0.200005,-0.599999c0,-0.2 0.099998,-0.5 0.099998,-0.7l0,-4.3l2.699997,0l0,4.3c0,0.7 -0.099998,1.299999 -0.199997,1.799999c-0.099998,0.5 -0.400002,0.900001 -0.700005,1.3c-0.399994,0.400001 -0.899994,0.7 -1.5,0.8c-0.599998,0.2 -1.199997,0.3 -1.799995,0.3c-0.599998,0 -1.300003,-0.1 -1.800003,-0.3c-0.599998,-0.2 -1.099998,-0.5 -1.5,-0.9c-0.299995,-0.3 -0.5,-0.700001 -0.599998,-1.1c-0.099998,-0.5 -0.199997,-1.1 -0.199997,-1.8l0,-4.4z"/>
   <path id="svg_6" d="m77.200027,9.3l-1.099998,-3c-0.099998,-0.3 -0.299995,-0.7 -0.400002,-1.1c-0.099998,-0.4 -0.299995,-0.8 -0.399994,-1.2c-0.100006,0.4 -0.200005,0.8 -0.400002,1.2c-0.099998,0.4 -0.200005,0.8 -0.400002,1.1l-1.099998,3l3.799995,0zm-3.399994,-8l3.099998,0l5.400002,13.2l-3.200005,0l-1,-2.7l-5.5,0l-1,2.7l-3.099998,0l5.300003,-13.2z"/>
  </g>
  <polygon id="svg_7" points="64.4 8.3 63.2 8.3 63.2 6.3 64.4 6.3 64.4 3.4 67.1 3.4 67.1 6.3 68.6 6.3 68.6 8.3 67.1 8.3 67.1 14.5 64.4 14.5" class="st0"/>
  <g id="svg_8">
   <polygon id="svg_9" points="59.2 0.5 60.4 0.5 61.9 0.5 61.9 14.5 59.2 14.5" class="st0"/>
   <path id="svg_10" d="m55.099983,9.5c0,-0.2 0,-0.4 -0.099998,-0.6c-0.099998,-0.2 -0.200001,-0.4 -0.299999,-0.5c-0.100002,-0.099999 -0.299999,-0.299999 -0.5,-0.4c-0.200001,-0.1 -0.400002,-0.1 -0.700001,-0.1c-0.5,0 -0.900002,0.1 -1.200001,0.4c-0.299999,0.3 -0.5,0.7 -0.5,1.099999l3.299999,0l0,0.1zm2.5,3.4c-0.5,0.6 -1,1.1 -1.699997,1.400001c-0.600002,0.3 -1.400002,0.5 -2.400002,0.5c-0.5,0 -1.099998,-0.1 -1.599998,-0.3c-0.5,-0.2 -1,-0.4 -1.400002,-0.8c-0.400002,-0.4 -0.700001,-0.8 -0.900002,-1.3c-0.199997,-0.5 -0.399998,-1.2 -0.399998,-1.9c0,-0.6 0.099998,-1.2 0.299999,-1.8c0.200001,-0.5 0.5,-1 0.900002,-1.4c0.399998,-0.4 0.799999,-0.7 1.399998,-0.9c0.5,-0.3 1.100002,-0.4 1.700001,-0.4c0.599998,0 1.200001,0.1 1.700001,0.3c0.5,0.2 1,0.5 1.299999,0.8c0.400002,0.4 0.700001,0.8 0.900002,1.3c0.199997,0.5 0.299999,1.1 0.299999,1.8l0,0.3c0,0.1 0,0.3 0,0.4l-5.900002,0c0,0.5 0.200001,1 0.600002,1.3c0.399998,0.3 0.799999,0.5 1.399998,0.5c0.799999,0 1.5,-0.4 2,-1.099999l1.799999,1.299999z" class="st0"/>
   <path id="svg_11" d="m31.899988,1.3l2.999998,0l1.799999,7.2c0.099998,0.4 0.200001,0.9 0.299999,1.4c0.099998,0.5 0.200001,1 0.200001,1.5c0.099998,-0.5 0.200001,-1 0.299999,-1.599999c0.099998,-0.5 0.200001,-1 0.299999,-1.5l1.600002,-7.1l3.199997,0l1.600002,7.3c0.099998,0.4 0.200001,0.8 0.299999,1.4c0.099998,0.5 0.200001,1 0.299999,1.6c0.100002,-0.5 0.200001,-1.1 0.299999,-1.6c0.100002,-0.5 0.200001,-1 0.300003,-1.299999l1.799999,-7.3l2.899998,0l-3.899998,13.2l-3.100002,0l-1.599998,-7.3c-0.099998,-0.3 -0.200001,-0.8 -0.299999,-1.3c-0.100002,-0.5 -0.200001,-1 -0.299999,-1.6c-0.100002,0.6 -0.200001,1.1 -0.200001,1.6c-0.100002,0.5 -0.200001,0.9 -0.200001,1.3l-1.599998,7.3l-3.100002,0l-3.899996,-13.2z" class="st0"/>
   <path id="svg_12" d="m24.900007,11.9c0.1,0.3 0.300001,0.5 0.5,0.700001c0.200001,0.2 0.4,0.299999 0.700001,0.299999c0.299999,0 0.5,0 0.6,-0.099999c0.099998,-0.1 0.199999,-0.2 0.199999,-0.400001c0,-0.2 -0.1,-0.4 -0.299999,-0.5c-0.200001,-0.099999 -0.4,-0.2 -0.700001,-0.299999c-0.299999,-0.1 -0.6,-0.200001 -1,-0.3c-0.299999,-0.1 -0.699999,-0.3 -1,-0.5c-0.299999,-0.2 -0.5,-0.400001 -0.699999,-0.7c-0.200001,-0.3 -0.300001,-0.700001 -0.300001,-1.200001c0,-0.4 0.1,-0.7 0.200001,-1.099999c0.1,-0.3 0.4,-0.6 0.6,-0.9c0.299999,-0.2 0.599998,-0.4 1,-0.6c0.5,-0.2 1,-0.3 1.5,-0.3c0.799999,0 1.399998,0.1 2,0.4c0.5,0.3 0.899998,0.8 1.200001,1.5l-2.100002,0.8c-0.099998,-0.3 -0.299999,-0.5 -0.5,-0.7c-0.199999,-0.1 -0.4,-0.2 -0.599998,-0.2c-0.200001,0 -0.300001,0 -0.5,0.1c-0.1,0.1 -0.200001,0.2 -0.200001,0.4c0,0.2 0.1,0.4 0.299999,0.5c0.200001,0.099999 0.400002,0.2 0.700001,0.4c0.299999,0.1 0.599998,0.2 1,0.3c0.299999,0.1 0.700001,0.3 1,0.5c0.299999,0.2 0.5,0.4 0.700001,0.7c0.200001,0.3 0.299999,0.7 0.299999,1.2c0,0.400001 -0.099998,0.8 -0.299999,1.1c-0.200001,0.3 -0.400002,0.6 -0.700001,0.8c-0.299999,0.2 -0.700001,0.4 -1.099998,0.5c-0.400002,0.099999 -0.900002,0.2 -1.300001,0.2c-0.9,0 -1.700001,-0.2 -2.200001,-0.5c-0.5,-0.3 -0.9,-0.8 -1.199999,-1.5l2.199999,-0.6z"/>
   <path id="svg_13" d="m16.800007,12.7c0.300001,0 0.6,-0.099999 0.800001,-0.2c0.199999,-0.1 0.5,-0.3 0.6,-0.5c0.199999,-0.2 0.299999,-0.4 0.4,-0.7c0.1,-0.3 0.1,-0.5 0.1,-0.8c0,-0.3 -0.1,-0.6 -0.200001,-0.8c-0.1,-0.3 -0.200001,-0.5 -0.4,-0.7c-0.200001,-0.2 -0.4,-0.4 -0.700001,-0.5c-0.299999,-0.1 -0.5,-0.2 -0.9,-0.2c-0.600001,0 -1.000003,0.2 -1.400005,0.599999c-0.400002,0.400001 -0.600003,0.900001 -0.600003,1.5c0,0.3 0,0.6 0.1,0.900001c0.100001,0.3 0.2,0.5 0.400002,0.7c0.200002,0.2 0.400002,0.4 0.600003,0.5c0.500003,0.1 0.800002,0.2 1.200002,0.2m1.800001,1c-0.300001,0.3 -0.700001,0.6 -1.200001,0.8c-0.4,0.2 -1,0.3 -1.600002,0.3c-0.600001,0 -1.100004,-0.1 -1.600007,-0.3c-0.500001,-0.2 -0.900002,-0.5 -1.200002,-0.9c-0.299999,-0.400001 -0.6,-0.8 -0.799999,-1.3c-0.200001,-0.5 -0.300001,-1.1 -0.300001,-1.7c0,-0.6 0.1,-1.200001 0.300001,-1.8c0.199999,-0.5 0.5,-1 0.799999,-1.4c0.299999,-0.4 0.799999,-0.7 1.3,-0.9c0.500003,-0.2 1.100007,-0.3 1.700011,-0.3c0.6,0 1.1,0.1 1.5,0.3c0.5,0.2 0.799999,0.5 1,0.9l0,-1l2.6,0l0,8.2l-2.6,0l0,-0.900001l0.1,0z"/>
   <path id="svg_14" d="m4.000002,12.2c0.6,0 1.2,-0.099999 1.7,-0.2c0.5,-0.2 0.899999,-0.4 1.299998,-0.8c0.299999,-0.3 0.599998,-0.7 0.799998,-1.3c0.199999,-0.5 0.399999,-1.2 0.399999,-2.099999c0,-0.7 -0.099999,-1.3 -0.3,-1.8c-0.199999,-0.5 -0.499999,-1 -0.799997,-1.3c-0.4,-0.4 -0.899998,-0.7 -1.499998,-0.9c-0.6,-0.2 -1.1,-0.2 -1.7,-0.2l-0.700001,0l0,8.6l0.800001,0zm-3.600002,-10.9l3.800002,0c1.1,0 2.099999,0.1 2.999997,0.4c0.799998,0.3 1.499998,0.7 2.099998,1.3c0.599999,0.6 1.099999,1.3 1.4,2.1c0.3,0.7 0.500001,1.6 0.500001,2.6c0,1.1 -0.200001,2.1 -0.6,2.900001c-0.400001,0.799999 -0.8,1.5 -1.400001,2.099999c-0.7,0.7 -1.399999,1.1 -2.299997,1.400001c-0.899997,0.299999 -1.899997,0.4 -2.899997,0.4l-3.600002,0l0,-13.2z"/>
  </g>
  <g id="svg_15">
   <path id="svg_16" d="m3.500001,27.799999c-0.500001,0 -0.900002,-0.099998 -1.400002,-0.299999c-0.4,-0.200001 -0.8,-0.4 -1.1,-0.700001c-0.3,-0.299999 -0.6,-0.699999 -0.7,-1.099998c-0.2,-0.400002 -0.3,-0.900002 -0.3,-1.300001c0,-0.5 0.1,-0.9 0.3,-1.299999c0.2,-0.4 0.399999,-0.800001 0.7,-1.1c0.3,-0.299999 0.7,-0.6 1.1,-0.700001c0.5,-0.299999 0.900001,-0.4 1.400002,-0.4c0.5,0 0.9,0.1 1.4,0.300001c0.400001,0.199999 0.8,0.4 1.1,0.699999c0.299999,0.300001 0.599999,0.700001 0.699998,1.1c0.199999,0.4 0.3,0.9 0.3,1.4c0,0.5 -0.100001,0.9 -0.3,1.300001c-0.199999,0.4 -0.399999,0.799999 -0.799998,1.099998c-0.3,0.300001 -0.7,0.6 -1.1,0.700001c-0.400001,0.200001 -0.8,0.299999 -1.3,0.299999zm0,-1.4c0.299999,0 0.600001,-0.1 0.800001,-0.199999c0.2,-0.1 0.5,-0.300001 0.599999,-0.400002c0.200001,-0.199999 0.3,-0.4 0.400001,-0.699999c0.099999,-0.300001 0.2,-0.5 0.2,-0.800001c0,-0.299999 -0.100001,-0.599998 -0.2,-0.799999c-0.1,-0.299999 -0.2,-0.5 -0.400001,-0.700001c-0.2,-0.199999 -0.4,-0.299999 -0.599999,-0.4c-0.2,-0.1 -0.500001,-0.199999 -0.800001,-0.199999c-0.300001,0 -0.600001,0.099998 -0.800002,0.199999c-0.2,0.1 -0.5,0.300001 -0.6,0.4c-0.2,0.200001 -0.3,0.400002 -0.4,0.700001c-0.1,0.299999 -0.2,0.5 -0.2,0.799999c0,0.300001 0.1,0.6 0.2,0.800001c0.1,0.299999 0.2,0.5 0.4,0.699999c0.2,0.200001 0.4,0.300001 0.6,0.400002c0.200001,0.199999 0.500001,0.199999 0.800002,0.199999z"/>
   <path id="svg_17" d="m10.799996,27.1c-0.2,0.199999 -0.400001,0.299999 -0.6,0.4c-0.2,0.1 -0.5,0.200001 -0.8,0.200001c-0.299999,0 -0.599999,-0.1 -0.799999,-0.200001c-0.200001,-0.1 -0.400001,-0.299999 -0.6,-0.4c-0.199999,-0.200001 -0.3,-0.4 -0.399999,-0.700001c-0.1,-0.299999 -0.1,-0.5 -0.1,-0.799999c0,-0.300001 0,-0.6 0.1,-0.800001c0.099999,-0.299999 0.199999,-0.5 0.399999,-0.699999c0.199999,-0.200001 0.399999,-0.300001 0.6,-0.5c0.299999,-0.1 0.5,-0.200001 0.799999,-0.200001c0.3,0 0.5,0 0.700001,0.1c0.2,0.1 0.4,0.200001 0.5,0.299999l0,-3.199999l1.299999,0l0,6.9l-1.299999,0l0,-0.4l0.2,0zm-1,-0.5c0.099999,0 0.3,0 0.4,-0.1c0.1,-0.1 0.2,-0.1 0.3,-0.200001c0.1,-0.099998 0.2,-0.199999 0.2,-0.299999c0,-0.1 0.1,-0.299999 0.1,-0.4c0,-0.200001 0,-0.300001 -0.1,-0.4c-0.099999,-0.1 -0.099999,-0.200001 -0.2,-0.300001c-0.1,-0.1 -0.2,-0.1 -0.3,-0.199999c-0.099999,0 -0.2,-0.1 -0.4,-0.1c-0.1,0 -0.3,0 -0.400001,0.1c-0.099999,0.099998 -0.2,0.099998 -0.299999,0.199999c-0.1,0.1 -0.1,0.200001 -0.200001,0.300001c0,0.099998 -0.099999,0.299999 -0.099999,0.4c0,0.199999 0,0.299999 0.099999,0.4c0.1,0.1 0.1,0.200001 0.200001,0.299999c0.099999,0.1 0.2,0.200001 0.299999,0.200001c0.200001,0.1 0.3,0.1 0.400001,0.1z"/>
   <path id="svg_18" d="m12.999996,20.700001l1.3,0l0,6.9l-1.3,0l0,-6.9z"/>
   <path id="svg_19" d="m16.000008,22.799999c-0.100001,0 -0.200003,0 -0.300001,-0.099998c-0.100001,0 -0.200002,-0.1 -0.200002,-0.200001c-0.100001,-0.1 -0.100001,-0.200001 -0.200003,-0.200001c0,-0.099998 -0.099998,-0.199999 -0.099998,-0.299999c0,-0.1 0,-0.200001 0.099998,-0.299999c0,-0.1 0.100001,-0.200001 0.200003,-0.200001c0.1,-0.1 0.200002,-0.1 0.200002,-0.200001c0.099998,0 0.2,-0.099998 0.300001,-0.099998c0.1,0 0.200001,0 0.299999,0.099998c0.1,0 0.200001,0.1 0.200001,0.200001c0.1,0.1 0.1,0.200001 0.200001,0.200001c0,0.099998 0.099998,0.199999 0.099998,0.299999c0,0.1 0,0.200001 -0.099998,0.299999c0,0.1 -0.1,0.200001 -0.200001,0.200001c-0.1,0.1 -0.200001,0.1 -0.200001,0.200001c-0.099998,0.099998 -0.199999,0.099998 -0.299999,0.099998zm-0.700006,0.800001l1.300006,0l0,4.1l-1.300006,0l0,-4.1z"/>
   <path id="svg_20" d="m20.300007,27.700001c-0.199999,0 -0.4,0.099998 -0.699999,0.099998c-0.300001,0 -0.700001,-0.099998 -0.9,-0.199999c-0.300001,-0.1 -0.5,-0.300001 -0.700001,-0.5c-0.200001,-0.200001 -0.299999,-0.4 -0.4,-0.700001c-0.1,-0.299999 -0.1,-0.5 -0.1,-0.799999c0,-0.300001 0,-0.5 0.1,-0.800001c0.1,-0.299999 0.199999,-0.5 0.4,-0.699999c0.200001,-0.200001 0.4,-0.4 0.700001,-0.5c0.299999,-0.1 0.599998,-0.200001 1,-0.200001c0.199999,0 0.4,0 0.599998,0.1c0.200001,0 0.400002,0.1 0.5,0.200001l0,1.199999c-0.099998,-0.1 -0.199999,-0.1 -0.4,-0.199999c-0.199999,-0.1 -0.299999,-0.1 -0.5,-0.1c-0.299999,0 -0.5,0.1 -0.799999,0.299999c-0.200001,0.200001 -0.300001,0.4 -0.300001,0.700001c0,0.1 0,0.299999 0.1,0.4c0,0.1 0.1,0.200001 0.200001,0.299999c0.1,0.1 0.199999,0.200001 0.299999,0.200001c0.1,0.1 0.300001,0.1 0.4,0.1c0.200001,0 0.300001,0 0.5,-0.1c0.200001,-0.1 0.300001,-0.1 0.400002,-0.200001l0,1.200001c0,0.1 -0.200001,0.1 -0.400002,0.200001zm-2.099998,-6.6l1.199999,0.799999l1.1,-0.799999l0.6,0.799999l-1.800001,1.300001l-1.699999,-1.300001l0.6,-0.799999z"/>
   <path id="svg_21" d="m21.600008,23.6l1.4,0l0,0.5c0,-0.1 0.1,-0.1 0.200001,-0.200001c0.099998,-0.1 0.199999,-0.1 0.299999,-0.199999c0.1,-0.1 0.200001,-0.1 0.4,-0.200001c0.1,0 0.300001,-0.1 0.5,-0.1c0.300001,0 0.5,0 0.6,0.1c0.200001,0.1 0.299999,0.200001 0.4,0.299999c0.1,0.1 0.200001,0.300001 0.300001,0.5c0.099998,0.200001 0.099998,0.400002 0.099998,0.700001l0,2.6l-1.299999,0l0,-2.200001c0,-0.1 0,-0.199999 0,-0.299999c0,-0.1 0,-0.200001 -0.1,-0.300001c0,-0.099998 -0.1,-0.099998 -0.199999,-0.199999c-0.1,0 -0.200001,-0.1 -0.300001,-0.1c-0.1,0 -0.1,0 -0.199999,0c-0.1,0 -0.200001,0.1 -0.300001,0.1c-0.1,0.1 -0.199999,0.199999 -0.199999,0.299999c-0.200001,0.300001 -0.200001,0.4 -0.200001,0.6l0,2.1l-1.299999,0l0,-4l-0.1,0z"/>
   <path id="svg_22" d="m29.700008,27.200001c-0.200001,0.199999 -0.400002,0.299999 -0.600002,0.4c-0.199997,0.1 -0.5,0.199999 -0.799999,0.199999c-0.299999,0 -0.599998,-0.099998 -0.799999,-0.199999c-0.200001,-0.1 -0.400002,-0.200001 -0.6,-0.4c-0.199999,-0.200001 -0.299999,-0.400002 -0.4,-0.700001c-0.1,-0.299999 -0.1,-0.5 -0.1,-0.9c0,-0.300001 0,-0.6 0.1,-0.9c0.1,-0.300001 0.200001,-0.5 0.4,-0.700001c0.199999,-0.200001 0.4,-0.4 0.6,-0.5c0.200001,-0.1 0.5,-0.200001 0.799999,-0.200001c0.299999,0 0.5,0.1 0.799999,0.200001c0.200001,0.1 0.400002,0.299999 0.5,0.4l0,-0.5l1.399992,0l0,4.1l-1.29999,0l0,-0.299999zm-0.900002,-0.5c0.200001,0 0.299999,0 0.400002,-0.1c0.099998,-0.1 0.200001,-0.1 0.299999,-0.200001c0.099998,-0.1 0.099998,-0.199999 0.200001,-0.299999c0,-0.1 0.099998,-0.300001 0.099998,-0.4c0,-0.1 0,-0.300001 -0.099998,-0.400002c0,-0.099998 -0.100002,-0.199999 -0.200001,-0.299999c-0.099998,-0.1 -0.200001,-0.200001 -0.299999,-0.200001c-0.100002,-0.099998 -0.299999,-0.099998 -0.400002,-0.099998c-0.299999,0 -0.5,0.099998 -0.700001,0.299999c-0.199997,0.200001 -0.299999,0.4 -0.299999,0.799999c0,0.1 0,0.300001 0.100002,0.400002c0,0.099998 0.099998,0.299999 0.199997,0.4c0.100002,0.1 0.200001,0.199999 0.300003,0.199999c0.099998,-0.099998 0.199997,-0.099998 0.399998,-0.099998z"/>
   <path id="svg_23" d="m34.399986,23.6l1.299999,0l0,0.6c0.099998,-0.200001 0.299999,-0.400002 0.5,-0.5c0.200001,-0.1 0.5,-0.200001 0.799999,-0.200001l0,1.299999c-0.099998,-0.099998 -0.299999,-0.099998 -0.5,-0.099998c-0.200001,0 -0.400002,0.099998 -0.5,0.299999c-0.099998,0.200001 -0.200001,0.5 -0.200001,0.9l0,1.800001l-1.299999,0l0,-4.1l-0.099998,0z"/>
   <path id="svg_24" d="m40.499985,27.200001c-0.200001,0.199999 -0.400002,0.299999 -0.599998,0.4c-0.200001,0.1 -0.5,0.199999 -0.800003,0.199999c-0.299999,0 -0.599998,-0.099998 -0.799999,-0.199999c-0.200001,-0.1 -0.399998,-0.200001 -0.599998,-0.4c-0.200001,-0.200001 -0.299999,-0.400002 -0.400002,-0.700001c-0.099998,-0.299999 -0.099998,-0.5 -0.099998,-0.9c0,-0.300001 0,-0.6 0.099998,-0.9c0.100002,-0.300001 0.200001,-0.5 0.400002,-0.700001c0.200001,-0.200001 0.399998,-0.4 0.599998,-0.5c0.200001,-0.1 0.5,-0.200001 0.799999,-0.200001c0.300003,0 0.5,0.1 0.800003,0.200001c0.199997,0.1 0.399998,0.299999 0.5,0.4l0,-0.5l1.299999,0l0,4.1l-1.299999,0l0,-0.299999l0.099998,0zm-0.900002,-0.5c0.200001,0 0.300003,0 0.400002,-0.1c0.099998,-0.1 0.200001,-0.1 0.299999,-0.200001c0.100002,-0.1 0.100002,-0.199999 0.200001,-0.299999c0,-0.1 0.099998,-0.300001 0.099998,-0.4c0,-0.1 0,-0.300001 -0.099998,-0.400002c0,-0.099998 -0.099998,-0.199999 -0.200001,-0.299999c-0.099998,-0.1 -0.200001,-0.200001 -0.299999,-0.200001c-0.099998,-0.099998 -0.299999,-0.099998 -0.400002,-0.099998c-0.299999,0 -0.5,0.099998 -0.699997,0.299999c-0.200001,0.200001 -0.300003,0.4 -0.300003,0.799999c0,0.1 0,0.300001 0.100002,0.400002c0,0.099998 0.099998,0.299999 0.200001,0.4c0.099998,0.1 0.199997,0.199999 0.299999,0.199999c0.099998,-0.099998 0.200001,-0.099998 0.399998,-0.099998z"/>
   <path id="svg_25" d="m42.799984,20.700001l1.299999,0l0,3.4c0.200001,-0.200001 0.400002,-0.4 0.600002,-0.5c0.200001,-0.1 0.5,-0.200001 0.799999,-0.200001c0.299999,0 0.5,0 0.700001,0.1c0.200001,0.1 0.399998,0.200001 0.599998,0.4c0.200001,0.200001 0.299999,0.4 0.400002,0.700001c0.099998,0.299999 0.099998,0.5 0.099998,0.9c0,0.299999 -0.099998,0.700001 -0.200001,0.9c-0.099998,0.300001 -0.199997,0.5 -0.399998,0.700001c-0.200001,0.199999 -0.400002,0.299999 -0.600002,0.4c-0.199997,0.1 -0.5,0.1 -0.799999,0.1c-0.299999,0 -0.5,0 -0.700001,-0.1c-0.199997,-0.1 -0.399998,-0.200001 -0.5,-0.4l0,0.4l-1.299999,0l0,-6.799999zm2.200001,6c0.099998,0 0.299999,0 0.400002,-0.1c0.099998,-0.1 0.199997,-0.1 0.299999,-0.200001c0.099998,-0.1 0.099998,-0.199999 0.200001,-0.299999c0,-0.1 0.099998,-0.300001 0.099998,-0.4c0,-0.1 0,-0.300001 -0.099998,-0.400002c0,-0.099998 -0.100002,-0.199999 -0.200001,-0.299999c-0.100002,-0.1 -0.200001,-0.200001 -0.299999,-0.200001c-0.100002,-0.099998 -0.300003,-0.099998 -0.400002,-0.099998c-0.299999,0 -0.5,0.099998 -0.700001,0.299999c-0.200001,0.200001 -0.299999,0.4 -0.299999,0.799999c0,0.1 0,0.200001 0.099998,0.400002c0,0.099998 0.100002,0.199999 0.200001,0.299999c0.100002,0.1 0.200001,0.200001 0.299999,0.299999c0.100002,-0.199999 0.300003,-0.099998 0.400002,-0.099998z"/>
   <path id="svg_26" d="m48.099983,20.700001l1.300003,0l0,6.9l-1.300003,0l0,-6.9z"/>
   <path id="svg_27" d="m51.099983,22.799999c-0.099998,0 -0.199997,0 -0.299999,-0.099998c-0.099998,0 -0.200001,-0.1 -0.200001,-0.200001c-0.099998,-0.1 -0.099998,-0.200001 -0.199997,-0.200001c0,-0.099998 -0.100002,-0.199999 -0.100002,-0.299999c0,-0.1 0,-0.200001 0.100002,-0.299999c0,-0.1 0.099998,-0.200001 0.199997,-0.200001c0.100002,-0.1 0.200001,-0.1 0.200001,-0.200001c0.100002,0 0.200001,-0.099998 0.299999,-0.099998c0.100002,0 0.200001,0 0.300003,0.099998c0.099998,0 0.199997,0.1 0.199997,0.200001c0.100002,0.1 0.100002,0.200001 0.200001,0.200001c0,0.099998 0.100002,0.199999 0.100002,0.299999c0,0.1 0,0.200001 -0.100002,0.299999c0,0.1 -0.099998,0.200001 -0.200001,0.200001c-0.099998,0.1 -0.199997,0.1 -0.199997,0.200001c-0.100002,0.099998 -0.200001,0.099998 -0.300003,0.099998zm-0.699997,0.800001l1.299999,0l0,5.9l-1.299999,0l0,-5.9z"/>
   <path id="svg_28" d="m56.699986,26.799999c-0.200001,0.300001 -0.5,0.5 -0.799999,0.700001c-0.300003,0.200001 -0.700001,0.200001 -1.200001,0.200001c-0.299999,0 -0.5,0 -0.799999,-0.1c-0.300003,-0.1 -0.5,-0.200001 -0.700001,-0.4c-0.200001,-0.200001 -0.299999,-0.400002 -0.5,-0.700001c-0.100002,-0.299999 -0.200001,-0.6 -0.200001,-0.9c0,-0.300001 0.099998,-0.6 0.200001,-0.9c0.099998,-0.300001 0.200001,-0.5 0.399998,-0.700001c0.200001,-0.200001 0.400002,-0.4 0.700001,-0.5c0.299999,-0.1 0.5,-0.200001 0.900002,-0.200001c0.299999,0 0.599998,0 0.799999,0.1c0.299999,0.1 0.5,0.200001 0.700001,0.4c0.200001,0.200001 0.299999,0.400002 0.399998,0.700001c0.100002,0.299999 0.200001,0.6 0.200001,0.9c0,0 0,0.1 0,0.200001c0,0.1 0,0.1 0,0.199999l-2.899998,0c0,0.300001 0.099998,0.5 0.299999,0.6c0.200001,0.200001 0.399998,0.300001 0.700001,0.300001c0.399998,0 0.699997,-0.200001 1,-0.5l0.799999,0.599998zm-1.200001,-1.699999c0,-0.1 0,-0.200001 -0.099998,-0.300001c0,-0.099998 -0.100002,-0.199999 -0.200001,-0.199999c-0.100002,-0.1 -0.100002,-0.1 -0.200001,-0.200001c-0.099998,0 -0.200001,-0.1 -0.299999,-0.1c-0.200001,0 -0.400002,0.1 -0.600002,0.200001c-0.099998,0.1 -0.199997,0.299999 -0.299999,0.6l1.700001,0z"/>
   <path id="svg_29" d="m57.499985,23.6l1.299999,0l0,0.5c0,-0.1 0.100002,-0.1 0.200001,-0.200001c0.099998,-0.1 0.199997,-0.1 0.300003,-0.199999c0.099998,-0.1 0.199997,-0.1 0.399994,-0.200001c0.100006,0 0.300003,-0.1 0.5,-0.1c0.300003,0 0.5,0 0.600006,0.1c0.199997,0.1 0.299995,0.200001 0.399994,0.299999c0.100006,0.1 0.200005,0.300001 0.300003,0.5c0.099998,0.200001 0.099998,0.400002 0.099998,0.700001l0,2.6l-1.299995,0l0,-2.200001c0,-0.1 0,-0.199999 0,-0.299999c0,-0.1 0,-0.200001 -0.100006,-0.300001c0,-0.099998 -0.099998,-0.099998 -0.199997,-0.199999c-0.099998,0 -0.199997,-0.1 -0.300003,-0.1c-0.099998,0 -0.099998,0 -0.199997,0c-0.099998,0 -0.199997,0.1 -0.300003,0.1c-0.099998,0.199999 -0.199997,0.299999 -0.199997,0.4c-0.099998,0.1 -0.099998,0.299999 -0.099998,0.5l0,2.1l-1.300003,0l0,-4l-0.099998,0z"/>
   <path id="svg_30" d="m65.600029,27.200001c-0.199997,0.199999 -0.400002,0.299999 -0.599998,0.4c-0.199997,0.1 -0.5,0.199999 -0.800003,0.199999c-0.299999,0 -0.60001,-0.099998 -0.800011,-0.199999c-0.200008,-0.1 -0.400009,-0.200001 -0.600014,-0.4c-0.200008,-0.200001 -0.300007,-0.400002 -0.400009,-0.700001c-0.100002,-0.299999 -0.100002,-0.5 -0.100002,-0.9c0,-0.300001 0,-0.6 0.100002,-0.9c0.100002,-0.300001 0.200001,-0.5 0.400009,-0.700001c0.200005,-0.200001 0.400005,-0.4 0.600014,-0.5c0.200001,-0.1 0.500011,-0.200001 0.800011,-0.200001c0.300003,0 0.5,0.1 0.800003,0.200001c0.199997,0.1 0.400002,0.299999 0.5,0.4l0,-0.5l1.300003,0l0,4.1l-1.300003,0l0,-0.299999l0.099998,0zm-0.900002,-0.5c0.200005,0 0.300003,0 0.400002,-0.1c0.099998,-0.1 0.200005,-0.1 0.300003,-0.200001c0.099998,-0.1 0.099998,-0.199999 0.199997,-0.299999c0,-0.1 0.099998,-0.300001 0.099998,-0.4c0,-0.1 0,-0.300001 -0.099998,-0.400002c0,-0.099998 -0.099998,-0.199999 -0.199997,-0.299999c-0.099998,-0.1 -0.200005,-0.200001 -0.300003,-0.200001c-0.099998,-0.099998 -0.299995,-0.099998 -0.400002,-0.099998c-0.299995,0 -0.5,0.099998 -0.699997,0.299999c-0.200005,0.200001 -0.300011,0.4 -0.300011,0.799999c0,0.1 0,0.300001 0.100006,0.400002c0,0.099998 0.100002,0.299999 0.200005,0.4c0.099998,0.1 0.199997,0.199999 0.300003,0.199999c0.099998,-0.099998 0.199997,-0.099998 0.399994,-0.099998z"/>
   <path id="svg_31" d="m69.800034,23.6l1.5,0l0.799995,2c0,0.1 0.099998,0.299999 0.200005,0.4c0.099998,0.200001 0.099998,0.299999 0.099998,0.5c0,-0.200001 0.099998,-0.299999 0.099998,-0.5c0,-0.200001 0.099998,-0.299999 0.199997,-0.5l0.700005,-1.9l1.400002,0l-1.800003,4l-1.400002,0l-1.799995,-4z"/>
   <path id="svg_32" d="m77.000031,27.799999c-0.300003,0 -0.599998,-0.099998 -0.900002,-0.199999c-0.299995,-0.1 -0.5,-0.300001 -0.699997,-0.5c-0.200005,-0.200001 -0.400002,-0.4 -0.5,-0.700001c-0.099998,-0.299999 -0.200005,-0.6 -0.200005,-0.9c0,-0.299999 0.100006,-0.6 0.200005,-0.799999c0.099998,-0.300001 0.299995,-0.5 0.5,-0.700001c0.199997,-0.200001 0.400002,-0.299999 0.699997,-0.5c0.300003,-0.1 0.599998,-0.200001 0.900002,-0.200001c0.300003,0 0.599998,0.1 0.900002,0.200001c0.299995,0.1 0.5,0.299999 0.699997,0.5c0.200005,0.200001 0.400002,0.4 0.5,0.700001c0.099998,0.299999 0.200005,0.599998 0.200005,0.9c0,0.299999 -0.100006,0.5 -0.200005,0.799999c-0.099998,0.300001 -0.299995,0.5 -0.5,0.700001c-0.199997,0.199999 -0.400002,0.4 -0.699997,0.5c-0.200005,0.1 -0.5,0.199999 -0.900002,0.199999zm0.099998,-1.199999c0.099998,0 0.300003,0 0.400002,-0.1c0.099998,-0.1 0.199997,-0.1 0.300003,-0.200001c0.099998,-0.099998 0.199997,-0.199999 0.199997,-0.299999c0,-0.1 0.099998,-0.299999 0.099998,-0.4c0,-0.300001 -0.099998,-0.5 -0.299995,-0.700001c-0.200005,-0.199999 -0.400002,-0.299999 -0.700005,-0.299999c-0.099998,0 -0.299995,0 -0.400002,0.1c-0.099998,0.099998 -0.199997,0.099998 -0.299995,0.199999c-0.099998,0.1 -0.099998,0.200001 -0.200005,0.300001c0,0.099998 -0.099998,0.299999 -0.099998,0.4c0,0.1 0,0.299999 0.099998,0.4c0.100006,0.1 0.100006,0.200001 0.200005,0.299999c0.099998,0.1 0.199997,0.200001 0.299995,0.200001c0.100006,0.1 0.200005,0.1 0.400002,0.1z"/>
   <path id="svg_33" d="m81.600029,24.6l-1.799995,0l0,-1l3.899994,0l-2,3.1l1.900002,0l0,1l-4,0l2,-3.1z"/>
   <path id="svg_34" d="m85.000031,22.799999c-0.099998,0 -0.199997,0 -0.300003,-0.099998c-0.099998,0 -0.199997,-0.1 -0.199997,-0.200001c-0.099998,-0.1 -0.099998,-0.200001 -0.199997,-0.200001c0,-0.099998 -0.100006,-0.199999 -0.100006,-0.299999c0,-0.1 0,-0.200001 0.100006,-0.299999c0,-0.1 0.099998,-0.200001 0.199997,-0.200001c0.099998,-0.1 0.199997,-0.1 0.199997,-0.200001c0.100006,0 0.200005,-0.099998 0.300003,-0.099998c0.099998,0 0.199997,0 0.300003,0.099998c0.099998,0 0.199997,0.1 0.199997,0.200001c0.099998,0.1 0.099998,0.200001 0.199997,0.200001c0,0.099998 0.100006,0.199999 0.100006,0.299999c0,0.1 0,0.200001 -0.100006,0.299999c0,0.1 -0.099998,0.200001 -0.199997,0.200001c-0.099998,0.1 -0.199997,0.1 -0.199997,0.200001c-0.100006,0.099998 -0.200005,0.099998 -0.300003,0.099998zm-0.599998,0.800001l1.299995,0l0,4.1l-1.299995,0l0,-4.1z"/>
   <path id="svg_35" d="m86.700027,20.700001l1.300003,0l0,6.9l-1.300003,0l0,-6.9z"/>
   <path id="svg_36" d="m92.000031,27.200001c-0.199997,0.199999 -0.400002,0.299999 -0.599998,0.4c-0.200005,0.1 -0.5,0.199999 -0.800003,0.199999c-0.299995,0 -0.599998,-0.099998 -0.799995,-0.199999c-0.200005,-0.1 -0.400002,-0.200001 -0.600006,-0.4c-0.199997,-0.200001 -0.299995,-0.400002 -0.399994,-0.700001c-0.100006,-0.299999 -0.100006,-0.5 -0.100006,-0.9c0,-0.300001 0,-0.6 0.100006,-0.9c0.099998,-0.300001 0.199997,-0.5 0.399994,-0.700001c0.200005,-0.200001 0.400002,-0.4 0.600006,-0.5c0.199997,-0.1 0.5,-0.200001 0.799995,-0.200001c0.300003,0 0.5,0.1 0.800003,0.200001c0.199997,0.1 0.400002,0.299999 0.5,0.4l0,-0.5l1.299995,0l0,4.1l-1.199997,0l0,-0.299999zm-0.900002,-0.5c0.200005,0 0.300003,0 0.400002,-0.1c0.099998,-0.1 0.199997,-0.1 0.300003,-0.200001c0.099998,-0.1 0.099998,-0.199999 0.199997,-0.299999c0,-0.1 0.099998,-0.300001 0.099998,-0.4c0,-0.1 0,-0.300001 -0.099998,-0.400002c0,-0.099998 -0.099998,-0.199999 -0.199997,-0.299999c-0.100006,-0.1 -0.200005,-0.200001 -0.300003,-0.200001c-0.099998,-0.099998 -0.300003,-0.099998 -0.400002,-0.099998c-0.299995,0 -0.5,0.099998 -0.699997,0.299999c-0.200005,0.200001 -0.300003,0.4 -0.300003,0.799999c0,0.1 0,0.300001 0.099998,0.400002c0,0.099998 0.100006,0.299999 0.200005,0.4c0.099998,0.1 0.199997,0.199999 0.299995,0.199999c0.100006,-0.099998 0.200005,-0.099998 0.400002,-0.099998z"/>
   <path id="svg_37" d="m94.900032,27.799999c-0.200005,0 -0.400002,-0.099998 -0.599998,-0.199999c-0.200005,-0.200001 -0.200005,-0.300001 -0.200005,-0.6c0,-0.200001 0.099998,-0.4 0.200005,-0.6c0.199997,-0.199999 0.299995,-0.199999 0.599998,-0.199999c0.199997,0 0.400002,0.099998 0.599998,0.199999c0.199997,0.200001 0.199997,0.300001 0.199997,0.6c0,0.200001 -0.099998,0.4 -0.199997,0.6c-0.199997,0.1 -0.300003,0.199999 -0.599998,0.199999z"/>
   <path id="svg_38" d="m102.100029,24.1l3.300003,0l0,0.299999c0,0.5 -0.099998,0.9 -0.200005,1.300001c-0.099998,0.4 -0.399994,0.799999 -0.699997,1.099998c-0.300003,0.300001 -0.599998,0.5 -1,0.700001c-0.400002,0.200001 -0.900002,0.299999 -1.400002,0.299999c-0.5,0 -1,-0.099998 -1.400002,-0.299999c-0.399994,-0.200001 -0.799995,-0.4 -1,-0.700001c-0.299995,-0.299999 -0.5,-0.699999 -0.699997,-1.099998c-0.199997,-0.400002 -0.199997,-0.900002 -0.199997,-1.400002c0,-0.5 0.099998,-0.9 0.199997,-1.4c0.199997,-0.4 0.400002,-0.799999 0.699997,-1.1c0.300003,-0.299999 0.700005,-0.5 1.100006,-0.699999c0.399994,-0.200001 0.899994,-0.300001 1.399994,-0.300001c0.600006,0 1.100006,0.1 1.600006,0.400002c0.5,0.199999 0.899994,0.599998 1.199997,1.099998l-1.199997,0.700001c-0.200005,-0.299999 -0.5,-0.5 -0.700005,-0.700001c-0.299995,-0.199999 -0.599998,-0.199999 -1,-0.199999c-0.299995,0 -0.599998,0.1 -0.799995,0.199999c-0.200005,0.1 -0.400002,0.300001 -0.600006,0.5c-0.199997,0.200001 -0.299995,0.400002 -0.399994,0.700001c-0.100006,0.299999 -0.100006,0.5 -0.100006,0.799999c0,0.300001 0,0.6 0.100006,0.800001c0.099998,0.299999 0.199997,0.5 0.399994,0.699999c0.200005,0.200001 0.400002,0.400002 0.600006,0.5c0.199997,0.1 0.5,0.200001 0.899994,0.200001c0.400002,0 0.800003,-0.1 1.100006,-0.299999c0.299995,-0.200001 0.5,-0.5 0.599998,-0.900002l-1.800003,0l0,-1.199999z"/>
   <path id="svg_39" d="m109.300034,27.200001c-0.200005,0.199999 -0.400002,0.299999 -0.600006,0.4c-0.199997,0.1 -0.5,0.199999 -0.799995,0.199999c-0.300003,0 -0.599998,-0.099998 -0.800003,-0.199999c-0.199997,-0.1 -0.400002,-0.200001 -0.599998,-0.4c-0.199997,-0.200001 -0.300003,-0.400002 -0.400002,-0.700001c-0.099998,-0.299999 -0.099998,-0.5 -0.099998,-0.9c0,-0.300001 0,-0.6 0.099998,-0.9c0.099998,-0.300001 0.200005,-0.5 0.400002,-0.700001c0.199997,-0.200001 0.400002,-0.4 0.599998,-0.5c0.200005,-0.1 0.5,-0.200001 0.800003,-0.200001c0.299995,0 0.5,0.1 0.799995,0.200001c0.200005,0.1 0.400002,0.299999 0.5,0.4l0,-0.5l1.300003,0l0,4.1l-1.300003,0l0,-0.299999l0.100006,0zm-1,-0.5c0.199997,0 0.299995,0 0.399994,-0.1c0.100006,-0.1 0.200005,-0.1 0.300003,-0.200001c0.099998,-0.1 0.099998,-0.199999 0.199997,-0.299999c0,-0.1 0.100006,-0.300001 0.100006,-0.4c0,-0.1 0,-0.300001 -0.100006,-0.400002c0,-0.099998 -0.099998,-0.199999 -0.199997,-0.299999s-0.199997,-0.200001 -0.300003,-0.200001c-0.099998,-0.099998 -0.299995,-0.099998 -0.399994,-0.099998c-0.300003,0 -0.5,0.099998 -0.700005,0.299999c-0.199997,0.200001 -0.299995,0.4 -0.299995,0.799999c0,0.1 0,0.300001 0.099998,0.400002c0,0.099998 0.099998,0.299999 0.199997,0.4c0.099998,0.1 0.200005,0.199999 0.300003,0.199999c0.099998,-0.099998 0.299995,-0.099998 0.400002,-0.099998z"/>
   <path id="svg_40" d="m111.500031,23.6l1.300003,0l0,0.6c0.099998,-0.200001 0.299995,-0.400002 0.5,-0.5c0.199997,-0.1 0.5,-0.200001 0.799995,-0.200001l0,1.299999c-0.099998,-0.099998 -0.299995,-0.099998 -0.5,-0.099998c-0.199997,0 -0.400002,0.099998 -0.5,0.299999c-0.099998,0.200001 -0.199997,0.5 -0.199997,0.9l0,1.800001l-1.300003,0l0,-4.1l-0.099998,0z"/>
   <path id="svg_41" d="m117.700027,27.200001c-0.199997,0.199999 -0.399994,0.299999 -0.599998,0.4c-0.199997,0.1 -0.5,0.199999 -0.799995,0.199999c-0.300003,0 -0.600006,-0.099998 -0.800003,-0.199999c-0.199997,-0.1 -0.400002,-0.200001 -0.599998,-0.4c-0.200005,-0.200001 -0.300003,-0.400002 -0.400002,-0.700001c-0.099998,-0.299999 -0.099998,-0.5 -0.099998,-0.9c0,-0.300001 0,-0.6 0.099998,-0.9c0.099998,-0.300001 0.199997,-0.5 0.400002,-0.700001c0.199997,-0.200001 0.400002,-0.4 0.599998,-0.5c0.199997,-0.1 0.5,-0.200001 0.800003,-0.200001c0.299995,0 0.5,0.1 0.799995,0.200001c0.200005,0.1 0.400002,0.299999 0.5,0.4l0,-0.5l1.300003,0l0,4.1l-1.300003,0l0,-0.299999l0.099998,0zm-0.899994,-0.5c0.199997,0 0.299995,0 0.399994,-0.1c0.100006,-0.1 0.200005,-0.1 0.300003,-0.200001c0.099998,-0.1 0.099998,-0.199999 0.199997,-0.299999c0,-0.1 0.100006,-0.300001 0.100006,-0.4c0,-0.1 0,-0.300001 -0.100006,-0.400002c0,-0.099998 -0.099998,-0.199999 -0.199997,-0.299999c-0.099998,-0.1 -0.199997,-0.200001 -0.300003,-0.200001c-0.099998,-0.099998 -0.299995,-0.099998 -0.399994,-0.099998c-0.300003,0 -0.5,0.099998 -0.700005,0.299999c-0.199997,0.200001 -0.299995,0.4 -0.299995,0.799999c0,0.1 0,0.300001 0.099998,0.400002c0,0.099998 0.099998,0.299999 0.199997,0.4c0.099998,0.1 0.200005,0.199999 0.300003,0.199999c0.099998,-0.099998 0.199997,-0.099998 0.400002,-0.099998z"/>
   <path id="svg_42" d="m120.000031,23.6l1.300003,0l0,0.5c0,-0.1 0.099998,-0.1 0.199997,-0.200001c0.099998,-0.1 0.199997,-0.1 0.300003,-0.199999c0.099998,-0.1 0.199997,-0.1 0.399994,-0.200001c0.100006,0 0.300003,-0.1 0.5,-0.1c0.300003,0 0.5,0 0.600006,0.1c0.199997,0.1 0.300003,0.200001 0.399994,0.299999c0.100006,0.1 0.199997,0.300001 0.300003,0.5c0.100006,0.200001 0.100006,0.400002 0.100006,0.700001l0,2.6l-1.300003,0l0,-2.200001c0,-0.1 0,-0.199999 0,-0.299999c0,-0.1 0,-0.200001 -0.100006,-0.300001c0,-0.099998 -0.099998,-0.099998 -0.199997,-0.199999c-0.099998,0 -0.199997,-0.1 -0.300003,-0.1c-0.099998,0 -0.099998,0 -0.199997,0c-0.099998,0 -0.199997,0.1 -0.300003,0.1c-0.099998,0.1 -0.199997,0.199999 -0.199997,0.299999c-0.099998,0.1 -0.099998,0.300001 -0.099998,0.5l0,2.1l-1.400002,0l0,-3.9z"/>
   <path id="svg_43" d="m125.100037,24.6l-0.599991,0l0,-1l0.599991,0l0,-1.4l1.299988,0l0,1.4l0.699966,0l0,1l-0.699966,0l0,3.1l-1.299988,0l0,-3.1z"/>
   <path id="svg_44" d="m128.299942,22.799999c-0.100006,0 -0.199997,0 -0.299995,-0.099998c-0.100006,0 -0.199989,-0.1 -0.199989,-0.200001c-0.100006,-0.1 -0.100006,-0.200001 -0.199989,-0.200001c0,-0.099998 -0.099998,-0.199999 -0.099998,-0.299999c0,-0.1 0,-0.200001 0.099998,-0.299999c0,-0.1 0.099983,-0.200001 0.199989,-0.200001c0.099983,-0.1 0.199989,-0.1 0.199989,-0.200001c0.099998,0 0.199989,-0.099998 0.299995,-0.099998c0.099991,0 0.199997,0 0.300003,0.099998c0.099991,0 0.199997,0.1 0.199997,0.200001c0.099991,0.1 0.099991,0.200001 0.199997,0.200001c0,0.099998 0.100006,0.199999 0.100006,0.299999c0,0.1 0,0.200001 -0.100006,0.299999c0,0.1 -0.100006,0.200001 -0.199997,0.200001c-0.100006,0.1 -0.199997,0.1 -0.199997,0.200001c-0.100006,0.099998 -0.200012,0.099998 -0.300003,0.099998zm-0.599991,0.800001l1.299988,0l0,4.1l-1.299988,0l0,-4.1z"/>
   <path id="svg_45" d="m129.999939,23.6l1.300003,0l0,0.6c0.099991,-0.200001 0.300003,-0.400002 0.5,-0.5c0.199997,-0.1 0.5,-0.200001 0.800003,-0.200001l0,1.299999c-0.100006,-0.099998 -0.300003,-0.099998 -0.5,-0.099998c-0.200012,0 -0.400009,0.099998 -0.5,0.299999c-0.100006,0.200001 -0.200012,0.5 -0.200012,0.9l0,1.800001l-1.399994,0l0,-4.1z"/>
   <path id="svg_46" d="m136.099945,27.200001c-0.199997,0.199999 -0.399994,0.299999 -0.599991,0.4c-0.200012,0.1 -0.5,0.199999 -0.800003,0.199999c-0.300003,0 -0.600006,-0.099998 -0.800003,-0.199999c-0.199997,-0.1 -0.399994,-0.200001 -0.600006,-0.4c-0.199997,-0.200001 -0.299988,-0.400002 -0.399994,-0.700001c-0.100006,-0.299999 -0.100006,-0.5 -0.100006,-0.9c0,-0.300001 0,-0.6 0.100006,-0.9c0.100006,-0.300001 0.199997,-0.5 0.399994,-0.700001c0.200012,-0.200001 0.400009,-0.4 0.600006,-0.5c0.199997,-0.1 0.5,-0.200001 0.800003,-0.200001c0.300003,0 0.5,0.1 0.800003,0.200001c0.199997,0.1 0.399994,0.299999 0.5,0.4l0,-0.5l1.299988,0l0,4.1l-1.299988,0l0,-0.299999l0.099991,0zm-0.900009,-0.5c0.199997,0 0.300003,0 0.400009,-0.1c0.099991,-0.1 0.199997,-0.1 0.299988,-0.200001c0.100006,-0.1 0.100006,-0.199999 0.200012,-0.299999c0,-0.1 0.099991,-0.300001 0.099991,-0.4c0,-0.1 0,-0.300001 -0.099991,-0.400002c0,-0.099998 -0.100006,-0.199999 -0.200012,-0.299999s-0.199997,-0.200001 -0.299988,-0.200001c-0.100006,-0.099998 -0.300003,-0.099998 -0.400009,-0.099998c-0.300003,0 -0.5,0.099998 -0.699997,0.299999c-0.199997,0.200001 -0.300003,0.4 -0.300003,0.799999c0,0.1 0,0.300001 0.100006,0.400002c0,0.099998 0.099991,0.299999 0.199997,0.4c0.100006,0.1 0.199997,0.199999 0.300003,0.199999c0.099991,-0.099998 0.199997,-0.099998 0.399994,-0.099998z"/>
   <path id="svg_47" d="m138.399933,23.6l1.300003,0l0,0.5c0,-0.1 0.099991,-0.1 0.199997,-0.200001c0.099991,-0.1 0.199997,-0.1 0.300003,-0.199999c0.099991,-0.1 0.199997,-0.1 0.399994,-0.200001c0.100006,0 0.300003,-0.1 0.5,-0.1c0.300003,0 0.5,0 0.600006,0.1c0.199997,0.1 0.299988,0.200001 0.399994,0.299999c0.100006,0.1 0.199997,0.300001 0.300003,0.5c0.099991,0.200001 0.099991,0.400002 0.099991,0.700001l0,2.6l-1.299988,0l0,-2.200001c0,-0.1 0,-0.199999 0,-0.299999c0,-0.1 -0.100006,-0.200001 -0.100006,-0.300001c0,-0.099998 -0.100006,-0.099998 -0.199997,-0.199999c-0.100006,0 -0.199997,-0.1 -0.300003,-0.1c-0.100006,0 -0.100006,0 -0.199997,0c-0.100006,0 -0.199997,0.1 -0.300003,0.1c-0.100006,0.1 -0.199997,0.199999 -0.199997,0.299999c-0.100006,0.1 -0.100006,0.300001 -0.100006,0.5l0,2.1l-1.300003,0l0,-3.9l-0.099991,0z"/>
   <path id="svg_48" d="m145.399933,27.799999c-0.300003,0 -0.600006,-0.099998 -0.900009,-0.199999c-0.299988,-0.1 -0.5,-0.300001 -0.699997,-0.5c-0.199997,-0.200001 -0.399994,-0.4 -0.5,-0.700001c-0.099991,-0.299999 -0.199997,-0.6 -0.199997,-0.9c0,-0.299999 0.100006,-0.6 0.199997,-0.799999c0.100006,-0.300001 0.300003,-0.5 0.5,-0.700001c0.199997,-0.200001 0.400009,-0.299999 0.699997,-0.5c0.300003,-0.1 0.600006,-0.200001 0.900009,-0.200001c0.300003,0 0.599991,0.1 0.899994,0.200001c0.300003,0.1 0.5,0.299999 0.699997,0.5c0.200012,0.200001 0.400009,0.4 0.5,0.700001c0.100006,0.299999 0.200012,0.599998 0.200012,0.9c0,0.299999 -0.100006,0.5 -0.200012,0.799999c-0.099991,0.300001 -0.299988,0.5 -0.5,0.700001c-0.199997,0.199999 -0.399994,0.4 -0.699997,0.5c-0.199982,0.1 -0.499985,0.199999 -0.899994,0.199999zm0.100006,-1.199999c0.100006,0 0.300003,0 0.399994,-0.1c0.100006,-0.1 0.200012,-0.1 0.300003,-0.200001c0.100006,-0.099998 0.199997,-0.199999 0.199997,-0.299999c0,-0.1 0.100006,-0.299999 0.100006,-0.4c0,-0.300001 -0.100006,-0.5 -0.300003,-0.700001c-0.199997,-0.199999 -0.399994,-0.299999 -0.699997,-0.299999c-0.100006,0 -0.300003,0 -0.399994,0.1c-0.100006,0.099998 -0.200012,0.099998 -0.300003,0.199999c-0.100006,0.1 -0.100006,0.200001 -0.199997,0.300001c0,0.099998 -0.100006,0.299999 -0.100006,0.4c0,0.1 0,0.299999 0.100006,0.4c0.099991,0.1 0.099991,0.200001 0.199997,0.299999c0.099991,0.1 0.199997,0.200001 0.300003,0.200001c0.099991,0.1 0.299988,0.1 0.399994,0.1z"/>
   <path id="svg_49" d="m149.199936,27.799999c-0.199997,0 -0.399994,-0.099998 -0.599991,-0.199999c-0.200012,-0.200001 -0.200012,-0.300001 -0.200012,-0.6c0,-0.200001 0.100006,-0.4 0.200012,-0.6c0.199997,-0.199999 0.299988,-0.199999 0.599991,-0.199999c0.199997,0 0.400009,0.099998 0.600006,0.199999c0.199997,0.200001 0.199997,0.300001 0.199997,0.6c0,0.200001 -0.100006,0.4 -0.199997,0.6s-0.400009,0.199999 -0.600006,0.199999z"/>
  </g>
 </g>
</svg>